<?xml version="1.0" encoding="UTF-8"?>
<!DOCTYPE svg PUBLIC "-//W3C//DTD SVG 1.1//EN" "http://www.w3.org/Graphics/SVG/1.1/DTD/svg11.dtd">
<svg xmlns="http://www.w3.org/2000/svg" version="1.1" width="534px" height="533px" style="shape-rendering:geometricPrecision; text-rendering:geometricPrecision; image-rendering:optimizeQuality; fill-rule:evenodd; clip-rule:evenodd" xmlns:xlink="http://www.w3.org/1999/xlink">
<g><path style="opacity:1" fill="#fefefe" d="M -0.5,-0.5 C 177.5,-0.5 355.5,-0.5 533.5,-0.5C 533.5,177.167 533.5,354.833 533.5,532.5C 355.5,532.5 177.5,532.5 -0.5,532.5C -0.5,354.833 -0.5,177.167 -0.5,-0.5 Z"/></g>
<g><path style="opacity:1" fill="#19fd8b" d="M 148.5,254.5 C 145.99,254.946 143.99,254.28 142.5,252.5C 149.74,235.97 153.406,218.637 153.5,200.5C 155.527,200.338 157.527,200.505 159.5,201C 160.321,217.247 157.821,233.081 152,248.5C 151.059,250.727 149.892,252.727 148.5,254.5 Z"/></g>
<g><path style="opacity:1" fill="#15fd8b" d="M 159.5,258.5 C 157.097,258.552 154.764,258.219 152.5,257.5C 160.087,239.653 163.921,220.986 164,201.5C 166.041,200.577 168.208,200.244 170.5,200.5C 171.136,220.686 167.47,240.019 159.5,258.5 Z"/></g>
<g><path style="opacity:1" fill="#15fd8b" d="M 168.5,264.5 C 166.283,263.631 163.95,263.298 161.5,263.5C 170.527,243.871 175.027,223.204 175,201.5C 177.041,200.577 179.208,200.244 181.5,200.5C 182.28,222.932 177.947,244.266 168.5,264.5 Z"/></g>
<g><path style="opacity:1" fill="#02231c" d="M 232.5,227.5 C 235.833,227.5 239.167,227.5 242.5,227.5C 242.333,248.503 242.5,269.503 243,290.5C 246.366,295.686 251.199,297.686 257.5,296.5C 257.5,299.5 257.5,302.5 257.5,305.5C 245.399,307.375 237.232,302.708 233,291.5C 232.5,270.169 232.333,248.836 232.5,227.5 Z"/></g>
<g><path style="opacity:1" fill="#14ff8b" d="M 402.5,233.5 C 410.991,232.99 413.324,236.49 409.5,244C 402.841,246.012 399.674,243.512 400,236.5C 401.045,235.627 401.878,234.627 402.5,233.5 Z"/></g>
<g><path style="opacity:1" fill="#05261f" d="M 335.5,250.5 C 343.215,249.571 349.715,251.904 355,257.5C 365.624,247.938 375.957,248.271 386,258.5C 387.439,260.275 388.439,262.275 389,264.5C 389.5,277.829 389.667,291.163 389.5,304.5C 386.5,304.5 383.5,304.5 380.5,304.5C 380.667,291.829 380.5,279.162 380,266.5C 376.787,259.518 371.62,257.685 364.5,261C 362.951,262.214 361.785,263.714 361,265.5C 360.5,278.496 360.333,291.496 360.5,304.5C 356.833,304.5 353.167,304.5 349.5,304.5C 349.667,291.496 349.5,278.496 349,265.5C 344.681,259.02 339.181,257.853 332.5,262C 331.54,263.419 330.707,264.919 330,266.5C 329.5,279.162 329.333,291.829 329.5,304.5C 326.167,304.5 322.833,304.5 319.5,304.5C 319.073,290.774 319.573,277.107 321,263.5C 324.162,257.164 328.996,252.831 335.5,250.5 Z"/></g>
<g><path style="opacity:1" fill="#02241d" d="M 263.5,251.5 C 266.833,251.5 270.167,251.5 273.5,251.5C 273.333,263.505 273.5,275.505 274,287.5C 277.962,296.05 284.462,298.55 293.5,295C 296.381,293.749 298.214,291.583 299,288.5C 299.5,276.171 299.667,263.838 299.5,251.5C 302.833,251.5 306.167,251.5 309.5,251.5C 309.885,265.212 309.385,278.879 308,292.5C 304.085,302.047 296.918,306.38 286.5,305.5C 276.136,306.278 268.969,301.944 265,292.5C 263.594,278.885 263.094,265.218 263.5,251.5 Z"/></g>
<g><path style="opacity:1" fill="#02231b" d="M 400.5,251.5 C 403.833,251.5 407.167,251.5 410.5,251.5C 410.5,269.167 410.5,286.833 410.5,304.5C 407.167,304.5 403.833,304.5 400.5,304.5C 400.5,286.833 400.5,269.167 400.5,251.5 Z"/></g>
<g><path style="opacity:1" fill="#0bd777" d="M 142.5,252.5 C 143.99,254.28 145.99,254.946 148.5,254.5C 147.59,257.992 145.924,260.992 143.5,263.5C 141.102,263.741 139.102,263.074 137.5,261.5C 138.929,258.304 140.595,255.304 142.5,252.5 Z"/></g>
<g><path style="opacity:1" fill="#09bf6b" d="M 137.5,261.5 C 139.102,263.074 141.102,263.741 143.5,263.5C 142.262,266.738 140.596,269.738 138.5,272.5C 136.283,271.631 133.95,271.298 131.5,271.5C 133.11,267.9 135.11,264.566 137.5,261.5 Z"/></g>
<g><path style="opacity:1" fill="#0bdd7a" d="M 161.5,263.5 C 163.95,263.298 166.283,263.631 168.5,264.5C 166.5,268.167 164.5,271.833 162.5,275.5C 160.283,274.631 157.95,274.298 155.5,274.5C 156.742,270.345 158.742,266.678 161.5,263.5 Z"/></g>
<g><path style="opacity:1" fill="#08cd71" d="M 152.5,257.5 C 154.764,258.219 157.097,258.552 159.5,258.5C 156.003,265.498 152.003,272.165 147.5,278.5C 144.941,278.802 142.607,278.468 140.5,277.5C 144.503,270.825 148.503,264.159 152.5,257.5 Z"/></g>
<g><path style="opacity:1" fill="#08a65e" d="M 131.5,271.5 C 133.95,271.298 136.283,271.631 138.5,272.5C 136.853,275.473 134.853,278.14 132.5,280.5C 129.833,280.5 127.167,280.5 124.5,280.5C 126.482,277.19 128.815,274.19 131.5,271.5 Z"/></g>
<g><path style="opacity:1" fill="#0dad62" d="M 140.5,277.5 C 142.607,278.468 144.941,278.802 147.5,278.5C 145.066,282.382 142.399,286.048 139.5,289.5C 137.626,288.715 135.626,288.048 133.5,287.5C 135.062,283.608 137.395,280.275 140.5,277.5 Z"/></g>
<g><path style="opacity:1" fill="#0db868" d="M 155.5,274.5 C 157.95,274.298 160.283,274.631 162.5,275.5C 158.525,282.131 154.191,288.464 149.5,294.5C 147.097,294.552 144.764,294.219 142.5,293.5C 146.45,286.887 150.783,280.554 155.5,274.5 Z"/></g>
<g><path style="opacity:1" fill="#0e864f" d="M 124.5,280.5 C 127.167,280.5 129.833,280.5 132.5,280.5C 130.421,284.328 128.588,288.328 127,292.5C 126.333,295.833 126.333,299.167 127,302.5C 127.932,296.838 130.099,291.838 133.5,287.5C 135.626,288.048 137.626,288.715 139.5,289.5C 136.735,293.455 134.735,297.788 133.5,302.5C 132.989,304.195 132.322,305.861 131.5,307.5C 130.583,306.873 129.583,306.539 128.5,306.5C 120.87,298.911 119.536,290.244 124.5,280.5 Z"/></g>
<g><path style="opacity:1" fill="#02fe89" d="M 171.5,302.5 C 183.167,302.5 194.833,302.5 206.5,302.5C 206.756,304.792 206.423,306.959 205.5,309C 192.171,309.5 178.837,309.667 165.5,309.5C 167.717,307.434 169.717,305.1 171.5,302.5 Z"/></g>
<g><path style="opacity:1" fill="#038f52" d="M 142.5,293.5 C 144.764,294.219 147.097,294.552 149.5,294.5C 148.055,297.118 146.389,299.618 144.5,302C 146.81,302.497 149.143,302.663 151.5,302.5C 149.269,304.515 147.269,306.848 145.5,309.5C 143.219,309.077 141.552,309.744 140.5,311.5C 139.833,311.5 139.5,311.833 139.5,312.5C 137.621,311.659 135.621,311.325 133.5,311.5C 134.11,310.609 134.443,309.609 134.5,308.5C 134.971,306.421 135.637,304.421 136.5,302.5C 137.769,298.946 139.769,295.946 142.5,293.5 Z"/></g>
<g><path style="opacity:1" fill="#00e37a" d="M 163.5,302.5 C 166.167,302.5 168.833,302.5 171.5,302.5C 169.717,305.1 167.717,307.434 165.5,309.5C 162.5,309.5 159.5,309.5 156.5,309.5C 158.806,307.194 161.14,304.86 163.5,302.5 Z"/></g>
<g><path style="opacity:1" fill="#00bb67" d="M 151.5,302.5 C 155.5,302.5 159.5,302.5 163.5,302.5C 161.14,304.86 158.806,307.194 156.5,309.5C 152.833,309.5 149.167,309.5 145.5,309.5C 147.269,306.848 149.269,304.515 151.5,302.5 Z"/></g>
<g><path style="opacity:1" fill="#d2e6dd" d="M 134.5,308.5 C 134.443,309.609 134.11,310.609 133.5,311.5C 133.565,311.938 133.399,312.272 133,312.5C 132.156,310.537 132.656,309.204 134.5,308.5 Z"/></g>
<g><path style="opacity:1" fill="#b5f6d8" d="M 140.5,311.5 C 162.167,312.167 183.833,312.833 205.5,313.5C 193.167,313.5 180.833,313.5 168.5,313.5C 166.5,313.5 164.5,313.5 162.5,313.5C 158.833,313.5 155.167,313.5 151.5,313.5C 147.298,313.817 143.298,313.483 139.5,312.5C 139.5,311.833 139.833,311.5 140.5,311.5 Z"/></g>
<g><path style="opacity:1" fill="#0a6c42" d="M 133.5,302.5 C 134.5,302.5 135.5,302.5 136.5,302.5C 135.637,304.421 134.971,306.421 134.5,308.5C 132.656,309.204 132.156,310.537 133,312.5C 133.399,312.272 133.565,311.938 133.5,311.5C 135.621,311.325 137.621,311.659 139.5,312.5C 143.298,313.483 147.298,313.817 151.5,313.5C 148.833,315.5 146.5,317.833 144.5,320.5C 142.738,320.643 141.071,320.309 139.5,319.5C 138.269,320.651 138.269,321.817 139.5,323C 142.817,323.498 146.15,323.665 149.5,323.5C 150.952,324.302 152.618,324.802 154.5,325C 153.149,328.195 150.815,330.028 147.5,330.5C 143.719,330.026 140.552,328.359 138,325.5C 134.999,319.023 131.832,312.69 128.5,306.5C 129.583,306.539 130.583,306.873 131.5,307.5C 132.322,305.861 132.989,304.195 133.5,302.5 Z"/></g>
<g><path style="opacity:1" fill="#02fd89" d="M 168.5,313.5 C 180.833,313.5 193.167,313.5 205.5,313.5C 206.811,315.56 206.811,317.726 205.5,320C 191.171,320.5 176.837,320.667 162.5,320.5C 164.626,318.146 166.626,315.813 168.5,313.5 Z"/></g>
<g><path style="opacity:1" fill="#039f5a" d="M 151.5,313.5 C 155.167,313.5 158.833,313.5 162.5,313.5C 160.588,315.657 158.921,317.991 157.5,320.5C 153.167,320.5 148.833,320.5 144.5,320.5C 146.5,317.833 148.833,315.5 151.5,313.5 Z"/></g>
<g><path style="opacity:1" fill="#02ca6f" d="M 162.5,313.5 C 164.5,313.5 166.5,313.5 168.5,313.5C 166.626,315.813 164.626,318.146 162.5,320.5C 160.833,320.5 159.167,320.5 157.5,320.5C 158.921,317.991 160.588,315.657 162.5,313.5 Z"/></g>
<g><path style="opacity:1" fill="#19f88a" d="M 162.5,323.5 C 176.837,323.333 191.171,323.5 205.5,324C 206.811,326.274 206.811,328.44 205.5,330.5C 191.163,330.667 176.829,330.5 162.5,330C 164.167,328.333 165.833,326.667 167.5,325C 165.618,324.802 163.952,324.302 162.5,323.5 Z"/></g>
<g><path style="opacity:1" fill="#3fbc7b" d="M 149.5,323.5 C 153.833,323.5 158.167,323.5 162.5,323.5C 163.952,324.302 165.618,324.802 167.5,325C 165.833,326.667 164.167,328.333 162.5,330C 176.829,330.5 191.163,330.667 205.5,330.5C 186.167,331.833 166.833,331.833 147.5,330.5C 150.815,330.028 153.149,328.195 154.5,325C 152.618,324.802 150.952,324.302 149.5,323.5 Z"/></g>
</svg>
